<svg xmlns="http://www.w3.org/2000/svg" style="display: none;">

  <symbol id="icon-food" viewBox="0 0 24 24">
    <path stroke-linecap="round" stroke-linejoin="round" d="M5.636 18.364a9 9 0 010-12.728m12.728 0a9 9 0 010 12.728m-9.9-2.829a5 5 0 010-7.07m7.07 0a5 5 0 010 7.07m-7.07 0l-1.414-1.414m0 0L5.636 5.636m1.414 1.414L5.636 8.464m11.314 0l-1.414 1.414m0 0L16.95 5.636m1.414 1.414L16.95 8.464M9 12a3 3 0 116 0 3 3 0 01-6 0z" />
  </symbol>

  <symbol id="icon-income" viewBox="0 0 24 24">
    <path stroke-linecap="round" stroke-linejoin="round" d="M12 8c-1.657 0-3 .895-3 2s1.343 2 3 2 3 .895 3 2-1.343 2-3 2m0-8c1.105 0 2.09.222 3 .618M12 8V7m0 1v8m0 0c-1.105 0-2.09-.222-3-.618m3 .618c-1.657 0-3-.895-3-2s1.343-2 3-2 3-.895 3-2-1.343-2-3-2m9 8a9 9 0 11-18 0 9 9 0 0118 0z" />
  </symbol>

  <symbol id="icon-shopping" viewBox="0 0 24 24">
     <path stroke-linecap="round" stroke-linejoin="round" d="M16 11V7a4 4 0 00-8 0v4M5 9h14l1 12H4L5 9z" />
  </symbol>

  <symbol id="icon-groceries" viewBox="0 0 24 24">
    <path stroke-linecap="round" stroke-linejoin="round" d="M3 3h2l.4 2M7 13h10l4-8H5.4M7 13L5.4 5M7 13l-2.293 2.293c-.63.63-.184 1.707.707 1.707H17m0 0a2 2 0 100 4 2 2 0 000-4zm-8 2a2 2 0 11-4 0 2 2 0 014 0z" />
  </symbol>

  <symbol id="icon-transport" viewBox="0 0 24 24">
     <path stroke-linecap="round" stroke-linejoin="round" d="M12 19l9 2-9-18-9 18 9-2zm0 0v-8" />
  </symbol>

  <symbol id="icon-bills" viewBox="0 0 24 24">
     <path stroke-linecap="round" stroke-linejoin="round" d="M11.42 15.17 17.25 21A2.652 2.652 0 0 0 21 17.25l-5.877-5.877M11.42 15.17l2.496-3.03c.317-.384.74-.626 1.208-.766M11.42 15.17l-4.655 5.653a2.548 2.548 0 1 1-3.586-3.586l6.837-5.63m5.108-.233c.55-.164 1.163-.188 1.743-.14a4.5 4.5 0 0 0 4.486-6.336l-3.276 3.277a3.004 3.004 0 0 1-2.25-2.25l3.276-3.276a4.5 4.5 0 0 0-6.336 4.486c.091 1.076-.071 2.264-.904 2.95l-.102.085m-1.745 1.437L5.909 7.5H4.5L2.25 3.75l1.5-1.5L7.5 4.5v1.409l4.26 4.26m-1.745 1.437 1.745-1.437m6.615 8.206L15.75 15.75M4.867 19.125h.008v.008h-.008v-.008Z" />
  </symbol>


  <symbol id="icon-home" viewBox="0 0 24 24">
    <path stroke-linecap="round" stroke-linejoin="round" d="M3 12l2-2m0 0l7-7 7 7M5 10v10a1 1 0 001 1h3m10-11l2 2m-2-2v10a1 1 0 01-1 1h-3m-6-4h.01M12 12h.01M15 12h.01M12 15h.01M15 15h.01M9 15h.01" />
  </symbol>

  <symbol id="icon-fuel" viewBox="0 0 24 24">
     <path stroke-linecap="round" stroke-linejoin="round" d="M8 16V6a4 4 0 118 0v10M6 16h12M12 21v-5" />
  </symbol>

  <symbol id="icon-default" viewBox="0 0 24 24">
     <path stroke-linecap="round" stroke-linejoin="round" d="M9 14l6-6m-5.5.5h.01m4.99 4.99h.01M19 10a9 9 0 11-18 0 9 9 0 0118 0z" />
  </symbol>

</svg>