<svg xmlns="http://www.w3.org/2000/svg" style="display: none;">
  <symbol id="icon-default" fill="none" viewBox="0 0 24 24" stroke="currentColor" stroke-width="1.5">
    <path stroke-linecap="round" stroke-linejoin="round" d="M9 12h6m-6 4h6m2 5H7a2 2 0 01-2-2V5a2 2 0 012-2h5.586a1 1 0 01.707.293l5.414 5.414a1 1 0 01.293.707V19a2 2 0 01-2 2z" />
  </symbol>
  <symbol id="icon-income" fill="none" viewBox="0 0 24 24" stroke="currentColor" stroke-width="1.5">
    <path stroke-linecap="round" stroke-linejoin="round" d="M12 6v12m6-6H6" />
    <path stroke-linecap="round" stroke-linejoin="round" d="M19.5 12a7.5 7.5 0 11-15 0 7.5 7.5 0 0115 0z" />
  </symbol>
  <symbol id="icon-food" fill="none" viewBox="0 0 24 24" stroke="currentColor" stroke-width="1.5">
    <path stroke-linecap="round" stroke-linejoin="round" d="M21.75 12c0 5.14-4.16 9.32-9.32 9.32-5.16 0-9.32-4.18-9.32-9.32 0-5.14 4.16-9.32 9.32-9.32 5.16 0 9.32 4.18 9.32 9.32z" />
    <path stroke-linecap="round" stroke-linejoin="round" d="M9 12v.01M12 12v.01M15 12v.01M10.34 16.24a4 4 0 003.32 0" />
  </symbol>
  <symbol id="icon-shopping" fill="none" viewBox="0 0 24 24" stroke="currentColor" stroke-width="1.5">
    <path stroke-linecap="round" stroke-linejoin="round" d="M16 11V7a4 4 0 00-8 0v4M5 9h14l1 12H4L5 9z" />
  </symbol>
  <symbol id="icon-groceries" fill="none" viewBox="0 0 24 24" stroke="currentColor" stroke-width="1.5">
    <path stroke-linecap="round" stroke-linejoin="round" d="M2.25 3h1.386c.51 0 .955.343 1.087.835l.383 1.437M7.5 14.25a3 3 0 00-3 3h15.75m-12.75-3h11.218c.51 0 .962.328 1.096.836l.74 2.19m-11.25 0a3 3 0 11-6 0 3 3 0 016 0z" />
    <path stroke-linecap="round" stroke-linejoin="round" d="M16.5 18a3 3 0 11-6 0 3 3 0 016 0z" />
  </symbol>
  <symbol id="icon-transport" fill="none" viewBox="0 0 24 24" stroke="currentColor" stroke-width="1.5">
    <path stroke-linecap="round" stroke-linejoin="round" d="M7.5 8.25h9m-9 3H12m-6.75 3h9M3 12c0 1.5 1.5 3 3 3s3-1.5 3-3-1.5-3-3-3-3 1.5-3 3zm12 0c0 1.5 1.5 3 3 3s3-1.5 3-3-1.5-3-3-3-3 1.5-3 3z" />
    <path stroke-linecap="round" stroke-linejoin="round" d="M3.055 11H5.94a.5.5 0 01.498.402l1.455 8.73A.5.5 0 008.39 21h7.22a.5.5 0 00.498-.868l1.455-8.73A.5.5 0 0118.06 11h2.885" />
  </symbol>
  <symbol id="icon-bills" fill="none" viewBox="0 0 24 24" stroke="currentColor" stroke-width="1.5">
    <path stroke-linecap="round" stroke-linejoin="round" d="M9 14.25l6-6m4.5-3.493V21.75l-3.22-3.22M16.5 5.25h-9l-3.22 3.22" />
    <path stroke-linecap="round" stroke-linejoin="round" d="M7.5 12.75l-4.5 4.5M4.5 3.75l-2.25 2.25" />
    <path stroke-linecap="round" stroke-linejoin="round" d="M19.5 15.75l2.25 2.25M17.25 21.75l2.25-2.25" />
  </symbol>
  <symbol id="icon-home" fill="none" viewBox="0 0 24 24" stroke="currentColor" stroke-width="1.5">
    <path stroke-linecap="round" stroke-linejoin="round" d="M2.25 12l8.954-8.955a.75.75 0 011.06 0l8.955 8.955" />
    <path stroke-linecap="round" stroke-linejoin="round" d="M4.5 9.75v10.125c0 .621.504 1.125 1.125 1.125H9.75v-4.875c0-.621.504-1.125 1.125-1.125h2.25c.621 0 1.125.504 1.125 1.125V21h4.125c.621 0 1.125-.504 1.125-1.125V9.75M8.25 21h8.25" />
  </symbol>
  <symbol id="icon-fuel" fill="none" viewBox="0 0 24 24" stroke="currentColor" stroke-width="1.5">
    <path stroke-linecap="round" stroke-linejoin="round" d="M7.5 7.5h-.75A2.25 2.25 0 004.5 9.75v7.5a2.25 2.25 0 002.25 2.25h7.5a2.25 2.25 0 002.25-2.25v-7.5a2.25 2.25 0 00-2.25-2.25h-.75m0-3l-3-3m0 0l-3 3m3-3v11.25m6.75 2.25h.75a2.25 2.25 0 002.25-2.25v-7.5a2.25 2.25 0 00-2.25-2.25h-.75m-6 3V11.25" />
  </symbol>
  <symbol id="icon-cash" fill="none" viewBox="0 0 24 24" stroke="currentColor" stroke-width="1.5">
    <path stroke-linecap="round" stroke-linejoin="round" d="M2.25 18.75a6 6 0 006 0m12 0a6 6 0 00-6 0m-6 0V6.375c0-1.02.7-1.937 1.666-2.193C8.484 3.96 9.696 3.75 11.25 3.75c1.554 0 2.766.21 3.584.433 1.05.289 1.666 1.213 1.666 2.193v12.375m-9-9c0-1.02.7-1.937 1.666-2.193C11.484 7.21 12.696 7 14.25 7c1.554 0 2.766.21 3.584.433 1.05.289 1.666 1.213 1.666 2.193v6.375m-9-6.375c0-1.02.7-1.937 1.666-2.193C8.484 7.21 9.696 7 11.25 7c1.554 0 2.766.21 3.584.433 1.05.289 1.666 1.213 1.666 2.193v6.375" />
  </symbol>
</svg>